<?xml version="1.0" encoding="UTF-8"?>
<svg xmlns="http://www.w3.org/2000/svg" width="17px" height="17px" viewBox="0 0 17 17" version="1.1">

<path style="fill: #cccccc" d="M 9.351562 0.597656 C 9.195312 0.234375 8.867188 0 8.503906 0 C 8.140625 0 7.8125 0.234375 7.652344 0.597656 L 5.753906 4.992188 L 1.515625 5.695312 C 1.164062 5.753906 0.867188 6.03125 0.757812 6.414062 C 0.648438 6.796875 0.738281 7.21875 0.992188 7.5 L 4.066406 10.921875 L 3.339844 15.761719 C 3.28125 16.160156 3.429688 16.566406 3.722656 16.800781 C 4.015625 17.035156 4.402344 17.066406 4.71875 16.878906 L 8.507812 14.601562 L 12.292969 16.878906 C 12.609375 17.066406 12.996094 17.039062 13.289062 16.800781 C 13.582031 16.5625 13.730469 16.160156 13.671875 15.761719 L 12.941406 10.921875 L 16.015625 7.5 C 16.269531 7.21875 16.363281 6.796875 16.25 6.414062 C 16.136719 6.03125 15.847656 5.753906 15.492188 5.695312 L 11.25 4.992188 Z M 9.351562 0.597656 "/>

</svg>
