<?xml version="1.0" encoding="UTF-8"?>
<svg xmlns="http://www.w3.org/2000/svg" xmlns:xlink="http://www.w3.org/1999/xlink" width="17px" height="18px" viewBox="0 0 17 17" version="1.1">
<g id="surface1">
<path style=" stroke:none;fill-rule:nonzero;fill:rgb(0%,0%,0%);fill-opacity:1;" d="M 17 8.5 C 17 13.046875 13.195312 16.734375 8.5 16.734375 C 7.621094 16.734375 6.78125 16.605469 5.984375 16.367188 C 6.332031 15.816406 6.847656 14.921875 7.039062 14.207031 C 7.144531 13.824219 7.566406 12.25 7.566406 12.25 C 7.84375 12.761719 8.652344 13.195312 9.515625 13.195312 C 12.078125 13.195312 13.925781 10.910156 13.925781 8.070312 C 13.925781 5.351562 11.632812 3.316406 8.683594 3.316406 C 5.019531 3.316406 3.066406 5.699219 3.066406 8.300781 C 3.066406 9.507812 3.734375 11.011719 4.792969 11.492188 C 4.953125 11.566406 5.039062 11.53125 5.074219 11.382812 C 5.101562 11.269531 5.246094 10.707031 5.3125 10.449219 C 5.332031 10.367188 5.324219 10.292969 5.253906 10.214844 C 4.90625 9.796875 4.628906 9.042969 4.628906 8.332031 C 4.628906 6.519531 6.046875 4.761719 8.464844 4.761719 C 10.554688 4.761719 12.015625 6.140625 12.015625 8.113281 C 12.015625 10.339844 10.855469 11.882812 9.34375 11.882812 C 8.511719 11.882812 7.882812 11.214844 8.085938 10.394531 C 8.324219 9.417969 8.789062 8.359375 8.789062 7.652344 C 8.789062 7.023438 8.4375 6.496094 7.710938 6.496094 C 6.859375 6.496094 6.171875 7.347656 6.171875 8.492188 C 6.171875 9.222656 6.425781 9.714844 6.425781 9.714844 C 6.425781 9.714844 5.585938 13.160156 5.433594 13.804688 C 5.261719 14.515625 5.328125 15.519531 5.402344 16.167969 C 2.242188 14.972656 0 11.988281 0 8.5 C 0 3.953125 3.804688 0.265625 8.5 0.265625 C 13.195312 0.265625 17 3.953125 17 8.5 Z M 17 8.5 "/>
</g>
</svg>
